<svg xmlns="http://www.w3.org/2000/svg" viewBox="0 0 1200 260" width="1200" height="260" font-family="ui-monospace,'Courier New',monospace">
  <defs><radialGradient id="pl" cx="0.35" cy="0.35"><stop offset="0%" stop-color="#6ad0ff"/><stop offset="100%" stop-color="#3a2a8f"/></radialGradient>
    <linearGradient id="sg" x1="0" y1="0" x2="1" y2="0"><stop offset="0%" stop-color="#5ad8ff"/><stop offset="100%" stop-color="#b07cff"/></linearGradient>
    <linearGradient id="spacebg" x1="0" y1="0" x2="1" y2="1"><stop offset="0%" stop-color="#0b1026"/><stop offset="100%" stop-color="#1a0b2e"/></linearGradient>
    <linearGradient id="bd" x1="0" y1="0" x2="1" y2="1"><stop offset="0%" stop-color="#5ad8ff"/><stop offset="100%" stop-color="#b07cff"/></linearGradient>
  </defs>
  <rect width="1200" height="260" rx="16" fill="url(#spacebg)"/>
  <rect x="1.5" y="1.5" width="1197" height="257" rx="15" fill="none" stroke="url(#bd)" stroke-width="2"/>
  <circle cx="663" cy="77" r="1.8" fill="#ffffff" opacity="0.8"/><circle cx="98" cy="37" r="0.8" fill="#ffffff" opacity="0.5"/><circle cx="1193" cy="29" r="1" fill="#ffffff" opacity="0.3"/><circle cx="176" cy="222" r="1.8" fill="#ffffff" opacity="0.3"/><circle cx="492" cy="46" r="1.8" fill="#ffffff" opacity="0.3"/><circle cx="1158" cy="63" r="1" fill="#ffffff" opacity="0.8"/><circle cx="1193" cy="31" r="1.8" fill="#ffffff" opacity="0.3"/><circle cx="452" cy="23" r="1" fill="#ffffff" opacity="0.5"/><circle cx="858" cy="73" r="0.8" fill="#ffffff" opacity="0.8"/><circle cx="631" cy="92" r="0.8" fill="#ffffff" opacity="0.8"/><circle cx="1169" cy="96" r="1.4" fill="#ffffff" opacity="0.3"/><circle cx="1121" cy="32" r="0.8" fill="#ffffff" opacity="0.8"/><circle cx="421" cy="254" r="1.8" fill="#ffffff" opacity="0.5"/><circle cx="953" cy="232" r="1.4" fill="#ffffff" opacity="0.5"/><circle cx="508" cy="92" r="1" fill="#ffffff" opacity="0.3"/><circle cx="1176" cy="153" r="1.8" fill="#ffffff" opacity="0.5"/><circle cx="919" cy="147" r="0.8" fill="#ffffff" opacity="0.3"/><circle cx="1048" cy="214" r="1" fill="#ffffff" opacity="0.5"/><circle cx="311" cy="250" r="1.8" fill="#ffffff" opacity="0.3"/><circle cx="158" cy="160" r="1.4" fill="#ffffff" opacity="0.8"/><circle cx="717" cy="254" r="1.8" fill="#ffffff" opacity="0.3"/><circle cx="191" cy="138" r="1.8" fill="#ffffff" opacity="0.8"/><circle cx="133" cy="31" r="1.4" fill="#ffffff" opacity="0.8"/><circle cx="1183" cy="228" r="1.4" fill="#ffffff" opacity="0.8"/><circle cx="790" cy="177" r="0.8" fill="#ffffff" opacity="0.5"/><circle cx="727" cy="86" r="0.8" fill="#ffffff" opacity="0.5"/><circle cx="120" cy="111" r="1.4" fill="#ffffff" opacity="0.3"/><circle cx="507" cy="203" r="1.8" fill="#ffffff" opacity="0.5"/><circle cx="165" cy="85" r="1.8" fill="#ffffff" opacity="0.5"/><circle cx="1125" cy="142" r="1" fill="#ffffff" opacity="0.5"/><circle cx="1126" cy="142" r="1.8" fill="#ffffff" opacity="0.5"/><circle cx="779" cy="118" r="1" fill="#ffffff" opacity="0.3"/><circle cx="360" cy="77" r="1" fill="#ffffff" opacity="0.8"/><circle cx="477" cy="6" r="1.8" fill="#ffffff" opacity="0.8"/><circle cx="373" cy="134" r="1.4" fill="#ffffff" opacity="0.3"/><circle cx="298" cy="214" r="1.4" fill="#ffffff" opacity="0.8"/><circle cx="1159" cy="163" r="1" fill="#ffffff" opacity="0.8"/><circle cx="1055" cy="27" r="1.8" fill="#ffffff" opacity="0.8"/><circle cx="1145" cy="200" r="1.8" fill="#ffffff" opacity="0.5"/><circle cx="807" cy="53" r="1.8" fill="#ffffff" opacity="0.8"/><circle cx="820" cy="31" r="1" fill="#ffffff" opacity="0.3"/><circle cx="427" cy="225" r="1" fill="#ffffff" opacity="0.3"/><circle cx="696" cy="26" r="0.8" fill="#ffffff" opacity="0.3"/><circle cx="1160" cy="77" r="0.8" fill="#ffffff" opacity="0.5"/><circle cx="52" cy="36" r="1" fill="#ffffff" opacity="0.8"/><circle cx="770" cy="76" r="1.4" fill="#ffffff" opacity="0.5"/><circle cx="745" cy="242" r="0.8" fill="#ffffff" opacity="0.3"/><circle cx="999" cy="238" r="1.8" fill="#ffffff" opacity="0.5"/><circle cx="638" cy="43" r="1" fill="#ffffff" opacity="0.3"/><circle cx="701" cy="135" r="1.8" fill="#ffffff" opacity="0.8"/><circle cx="330" cy="11" r="1" fill="#ffffff" opacity="0.8"/><circle cx="740" cy="75" r="0.8" fill="#ffffff" opacity="0.8"/><circle cx="610" cy="46" r="1.4" fill="#ffffff" opacity="0.8"/><circle cx="751" cy="85" r="1.4" fill="#ffffff" opacity="0.3"/><circle cx="1090" cy="257" r="1.4" fill="#ffffff" opacity="0.8"/><circle cx="456" cy="99" r="1" fill="#ffffff" opacity="0.5"/><circle cx="464" cy="102" r="1.8" fill="#ffffff" opacity="0.5"/><circle cx="59" cy="14" r="1.4" fill="#ffffff" opacity="0.5"/><circle cx="530" cy="99" r="1.4" fill="#ffffff" opacity="0.5"/><circle cx="715" cy="186" r="0.8" fill="#ffffff" opacity="0.3"/><circle cx="209" cy="116" r="1.8" fill="#ffffff" opacity="0.3"/><circle cx="691" cy="104" r="1.8" fill="#ffffff" opacity="0.8"/><circle cx="3" cy="245" r="1.4" fill="#ffffff" opacity="0.8"/><circle cx="173" cy="61" r="1.8" fill="#ffffff" opacity="0.8"/><circle cx="408" cy="244" r="1" fill="#ffffff" opacity="0.5"/><circle cx="680" cy="44" r="1.8" fill="#ffffff" opacity="0.5"/><circle cx="822" cy="43" r="1" fill="#ffffff" opacity="0.3"/><circle cx="260" cy="14" r="1" fill="#ffffff" opacity="0.8"/><circle cx="953" cy="74" r="1.8" fill="#ffffff" opacity="0.8"/><circle cx="717" cy="79" r="1" fill="#ffffff" opacity="0.3"/><circle cx="1090" cy="130" r="56" fill="url(#pl)"/>
  <ellipse cx="1090" cy="130" rx="92" ry="22" fill="none" stroke="#7af0ff" stroke-width="3" opacity="0.6" transform="rotate(-18 1090 130)"/>
  
  <text x="82" y="140" font-size="52" font-weight="700" fill="url(#sg)" letter-spacing="1">SPACEHANGMAN</text>
  <text x="84" y="178" font-size="22" font-weight="600" fill="#cdd6ff">Web Hangman &#183; Space Theme</text>
  <text x="84" y="208" font-size="15" fill="#7af0ff">&#8227; Go backend &#183; interactive browser frontend</text>
</svg>